<?xml version="1.0" standalone="no"?>
<!DOCTYPE svg PUBLIC "-//W3C//DTD SVG 20010904//EN"
 "http://www.w3.org/TR/2001/REC-SVG-20010904/DTD/svg10.dtd">
<svg version="1.0" xmlns="http://www.w3.org/2000/svg"
 width="256.000000pt" height="256.000000pt" viewBox="0 0 256.000000 256.000000"
 preserveAspectRatio="xMidYMid meet">
<metadata>
Created by potrace 1.11, written by Peter Selinger 2001-2013
</metadata>
<g transform="translate(0.000000,256.000000) scale(0.100000,-0.100000)"
fill="#000000" stroke="none">
<path d="M1004 2119 c-18 -5 -46 -25 -63 -44 -26 -30 -31 -44 -31 -85 0 -142
190 -185 256 -58 53 102 -49 218 -162 187z"/>
<path d="M1412 2110 c-61 -37 -79 -122 -39 -181 47 -72 134 -86 197 -33 93 79
36 234 -86 234 -22 0 -54 -9 -72 -20z"/>
<path d="M985 1763 c-16 -2 -88 -10 -160 -19 -109 -13 -278 -41 -361 -59 l-21
-5 17 -85 c10 -47 20 -88 22 -91 3 -2 18 0 33 6 35 13 38 10 24 -26 -77 -201
-153 -575 -166 -809 l-5 -110 31 -43 c17 -23 46 -51 64 -62 31 -19 54 -20 795
-20 844 0 806 -3 858 66 l29 38 -1 160 c0 224 -35 410 -127 686 l-43 129 34
-2 34 -2 23 82 23 82 -52 11 c-107 23 -297 50 -450 65 -142 13 -517 19 -601 8z
m640 -189 c66 -7 125 -14 131 -14 25 0 103 -219 154 -430 40 -167 60 -310 60
-425 l0 -95 -711 0 -712 0 6 118 c6 117 13 163 61 383 27 125 84 311 121 395
21 48 25 52 66 57 42 6 238 23 344 31 85 6 354 -5 480 -20z"/>
</g>
</svg>
